Coordinates
version=1
nRows=16
nColumns=63
inDegrees=yes

Units are S.I. units (second, meters, Newtons, ...)
If the header above contains a line with 'inDegrees', this indicates whether rotational values are in degrees (yes) or radians (no).

endheader
time	pelvis_tilt	pelvis_list	pelvis_rotation	pelvis_tx	pelvis_ty	pelvis_tz	hip_flexion_r	hip_adduction_r	hip_rotation_r	knee_angle_r	knee_angle_r_beta	ankle_angle_r	subtalar_angle_r	mtp_angle_r	hip_flexion_l	hip_adduction_l	hip_rotation_l	knee_angle_l	knee_angle_l_beta	ankle_angle_l	subtalar_angle_l	mtp_angle_l	L5_S1_Flex_Ext	L5_S1_Lat_Bending	L5_S1_axial_rotation	L4_L5_Flex_Ext	L4_L5_Lat_Bending	L4_L5_axial_rotation	L3_L4_Flex_Ext	L3_L4_Lat_Bending	L3_L4_axial_rotation	L2_L3_Flex_Ext	L2_L3_Lat_Bending	L2_L3_axial_rotation	L1_L2_Flex_Ext	L1_L2_Lat_Bending	L1_L2_axial_rotation	L1_T12_Flex_Ext	L1_T12_Lat_Bending	L1_T12_axial_rotation	Abs_r3	Abs_r2	Abs_r1	Abs_t1	Abs_t2	neck_flexion	neck_bending	neck_rotation	arm_flex_r	arm_add_r	arm_rot_r	elbow_flex_r	pro_sup_r	wrist_flex_r	wrist_dev_r	arm_flex_l	arm_add_l	arm_rot_l	elbow_flex_l	pro_sup_l	wrist_flex_l	wrist_dev_l
0.000000	5.596353	-3.141731	100.921860	0.203271	0.929830	0.416257	-5.503062	6.982890	-15.871723	4.256875	0.074296	25.232766	8.732028	0.000000	-4.091004	-5.750549	-7.156799	5.917532	0.103280	25.710054	11.816155	0.000000	0.285562	0.708709	-2.500482	0.530318	0.942582	-2.656762	0.469150	1.723154	-2.656762	0.326369	1.723154	-2.187922	0.265173	1.445199	-2.031642	0.163170	1.097790	-1.875361	2.039743	8.017053	-13.906930	0.000000	0.000000	3.861607	-2.482472	-4.654533	18.618819	-15.845333	79.699335	60.842050	9.805426	2.911921	1.962418	14.284054	-5.397362	60.998007	51.429647	53.662459	10.032983	6.750359
0.016949	5.531512	-3.007992	100.036937	0.204982	0.929466	0.414861	-5.602416	6.845773	-14.320447	4.835206	0.084390	25.364647	7.562623	0.000000	-4.911941	-5.493712	-4.537635	5.227829	0.091243	24.857501	7.042519	0.000000	0.264757	0.707781	-2.399633	0.491680	0.941349	-2.549610	0.434969	1.720900	-2.549610	0.302590	1.720900	-2.099679	0.245853	1.443308	-1.949702	0.151282	1.096353	-1.799725	1.891131	8.006564	-13.346039	0.000000	0.000000	4.113151	-2.394541	-3.821574	18.145273	-15.769003	79.584957	60.802243	13.291728	2.617396	1.875185	13.864732	-5.717316	60.263414	51.977071	54.564119	10.074077	6.994622
0.033898	5.480441	-2.912468	99.256812	0.206443	0.929146	0.413597	-5.668474	6.727633	-13.018281	5.314431	0.092754	25.521239	6.656499	0.000000	-5.589329	-5.279868	-2.502788	4.627128	0.080759	24.195661	3.251813	0.000000	0.250099	0.707091	-2.309435	0.464460	0.940431	-2.453775	0.410888	1.719222	-2.453775	0.285839	1.719222	-2.020756	0.232242	1.441900	-1.876416	0.142907	1.095284	-1.732077	1.786435	7.998758	-12.844387	0.000000	0.000000	4.394243	-2.309406	-3.070395	17.781511	-15.709283	79.576189	60.778358	16.074887	2.388552	1.731237	13.544323	-5.993818	59.758244	52.436237	55.208899	10.116134	7.157278
0.050847	5.442004	-2.851446	98.577083	0.207668	0.928868	0.412464	-5.704038	6.627219	-11.946975	5.702875	0.099534	25.698362	5.988133	0.000000	-6.133890	-5.105746	-0.997060	4.110663	0.071745	23.707639	0.356948	0.000000	0.240991	0.706626	-2.229406	0.447545	0.939813	-2.368744	0.395925	1.718091	-2.368744	0.275429	1.718091	-1.950730	0.223785	1.440952	-1.811392	0.137702	1.094564	-1.672054	1.721377	7.993497	-12.399286	0.000000	0.000000	4.699044	-2.227120	-2.394530	17.516842	-15.665116	79.659762	60.768758	18.225113	2.218275	1.540292	13.314478	-6.229180	59.461253	52.813185	55.621531	10.156651	7.244768
0.067797	5.415067	-2.821213	97.993347	0.208671	0.928628	0.411460	-5.711905	6.543277	-11.088275	6.008861	0.104874	25.891838	5.532004	0.000000	-6.556343	-4.968077	0.034747	3.673668	0.064118	23.376540	-1.729161	0.000000	0.236833	0.706374	-2.159061	0.439823	0.939478	-2.294002	0.389093	1.717478	-2.294002	0.270677	1.717478	-1.889178	0.219923	1.440438	-1.754237	0.135327	1.094174	-1.619295	1.691677	7.990646	-12.008047	0.000000	0.000000	5.021716	-2.147735	-1.787512	17.340575	-15.635447	79.822406	60.771808	19.812615	2.099450	1.312064	13.166848	-6.425714	59.351201	53.113959	55.826747	10.193123	7.263534
0.084746	5.398496	-2.818053	97.501200	0.209466	0.928422	0.410581	-5.694877	6.474555	-10.423932	6.240711	0.108921	26.097487	5.262590	0.000000	-6.867410	-4.863589	0.647831	3.311378	0.057794	23.185469	-3.093602	0.000000	0.237026	0.706323	-2.097916	0.440182	0.939410	-2.229036	0.389411	1.717354	-2.229036	0.270897	1.717354	-1.835677	0.220103	1.440334	-1.704557	0.135437	1.094094	-1.573437	1.693055	7.990068	-11.667980	0.000000	0.000000	5.356420	-2.071305	-1.242872	17.242019	-15.619218	80.050853	60.785869	20.907602	2.024965	1.056270	13.093083	-6.585731	59.406846	53.344601	55.849278	10.223045	7.220018
0.101695	5.391155	-2.838254	97.096240	0.210066	0.928249	0.409828	-5.655751	6.419802	-9.935693	6.406751	0.111819	26.311130	5.154370	0.000000	-7.077811	-4.789013	0.897389	3.019028	0.052692	23.117529	-3.823462	0.000000	0.240971	0.706461	-2.045489	0.447508	0.939593	-2.173332	0.395892	1.717689	-2.173332	0.275406	1.717689	-1.789803	0.223766	1.440615	-1.661960	0.137691	1.094308	-1.534117	1.721234	7.991625	-11.376395	0.000000	0.000000	5.697315	-1.997881	-0.754145	17.210484	-15.615374	80.331833	60.809307	21.580285	1.987705	0.782623	13.084833	-6.711544	59.606946	53.511153	55.713855	10.243913	7.120661
0.118644	5.391911	-2.878102	96.774063	0.210486	0.928105	0.409196	-5.597329	6.377764	-9.605308	6.515302	0.113713	26.528587	5.181822	0.000000	-7.198267	-4.741076	0.838621	2.791852	0.048727	23.155827	-4.005827	0.000000	0.248069	0.706775	-2.001295	0.460689	0.940011	-2.126376	0.407553	1.718453	-2.126376	0.283518	1.718453	-1.751133	0.230357	1.441256	-1.626052	0.141747	1.094795	-1.500971	1.771933	7.995181	-11.130603	0.000000	0.000000	6.038565	-1.927516	-0.314863	17.235278	-15.622857	80.652077	60.840484	21.900873	1.980556	0.500842	13.133748	-6.805464	59.930259	53.619658	55.445211	10.253223	6.971906
0.135593	5.399628	-2.933884	96.530268	0.210739	0.927986	0.408685	-5.522410	6.347189	-9.414526	6.574689	0.114750	26.745681	5.319423	0.000000	-7.239497	-4.716509	0.526724	2.625086	0.045816	23.283466	-3.727785	0.000000	0.257721	0.707254	-1.964852	0.478613	0.940648	-2.087655	0.423410	1.719617	-2.087655	0.294549	1.719617	-1.719245	0.239320	1.442232	-1.596442	0.147262	1.095536	-1.473639	1.840874	8.000599	-10.927915	0.000000	0.000000	6.374329	-1.860264	0.081441	17.305712	-15.640613	80.998317	60.877763	21.939574	1.996404	0.220640	13.231480	-6.869802	60.355543	53.676158	55.068077	10.248468	6.780194
0.152542	5.413171	-3.001884	96.360449	0.210838	0.927891	0.408292	-5.433793	6.326825	-9.345095	6.593235	0.115074	26.958231	5.541654	0.000000	-7.212223	-4.712042	0.016895	2.513962	0.043877	23.483551	-3.076422	0.000000	0.269327	0.707885	-1.935675	0.500168	0.941488	-2.056654	0.442478	1.721153	-2.056654	0.307814	1.721153	-1.693715	0.250097	1.443520	-1.572736	0.153894	1.096515	-1.451756	1.923778	8.007742	-10.765641	0.000000	0.000000	6.698768	-1.796176	0.441236	17.411094	-15.667584	81.357283	60.919509	21.766600	2.028136	-0.048267	13.369679	-6.906872	60.861557	53.686695	54.607184	10.227146	6.551968
0.169492	5.431407	-3.078391	96.260206	0.210799	0.927815	0.408015	-5.334279	6.315419	-9.378764	6.579263	0.114830	27.162059	5.822991	0.000000	-7.127165	-4.724402	-0.635667	2.453717	0.042825	23.739187	-2.138826	0.000000	0.282290	0.708657	-1.913280	0.524240	0.942514	-2.032861	0.463773	1.723029	-2.032861	0.322629	1.723029	-1.674120	0.262134	1.445094	-1.554540	0.161300	1.097710	-1.434960	2.016366	8.016473	-10.641092	0.000000	0.000000	7.006044	-1.735305	0.770986	17.540734	-15.702714	81.715706	60.964084	21.452159	2.068638	-0.296163	13.539995	-6.918984	61.427060	53.657312	54.087264	10.186751	6.293668
0.186441	5.460153	-3.160700	96.222761	0.210616	0.927768	0.407862	-5.218131	6.318570	-9.415644	6.554811	0.114403	27.337752	6.007194	0.000000	-7.007883	-4.744800	-1.133195	2.413405	0.042122	23.949637	-1.378651	0.000000	0.297073	0.711718	-1.904526	0.551695	0.946585	-2.023559	0.488061	1.730471	-2.023559	0.339525	1.730471	-1.666460	0.275862	1.451336	-1.547427	0.169748	1.102451	-1.428394	2.121964	8.051097	-10.592401	0.000000	0.000000	7.212778	-1.716210	1.106069	17.686222	-15.755804	82.176538	61.020558	20.942591	2.102575	-0.496588	13.683347	-6.894705	61.910834	53.581293	53.597611	10.096694	6.027553
0.203390	5.488142	-3.237118	96.253070	0.210321	0.927732	0.407829	-5.101155	6.322990	-9.577742	6.525946	0.113899	27.494588	6.263756	0.000000	-6.850071	-4.780520	-1.784323	2.444367	0.042662	24.228389	-0.321118	0.000000	0.310456	0.714649	-1.900814	0.576549	0.950483	-2.019615	0.510049	1.737598	-2.019615	0.354821	1.737598	-1.663212	0.288290	1.457312	-1.544411	0.177395	1.106991	-1.425611	2.217559	8.084253	-10.571758	0.000000	0.000000	7.405100	-1.684791	1.465802	17.818682	-15.812516	82.503236	61.078053	20.705540	2.086427	-0.643746	13.846562	-6.855390	62.413096	53.490688	53.099162	9.961553	5.708892
0.220339	5.514867	-3.305803	96.381059	0.209923	0.927695	0.407978	-4.985096	6.334416	-9.891131	6.486656	0.113214	27.631615	6.579995	0.000000	-6.638872	-4.840930	-2.621701	2.567190	0.044806	24.615078	1.128125	0.000000	0.321582	0.716202	-1.904780	0.597211	0.952549	-2.023828	0.528328	1.741375	-2.023828	0.367537	1.741375	-1.666682	0.298621	1.460480	-1.547634	0.183752	1.109398	-1.428585	2.297031	8.101825	-10.593813	0.000000	0.000000	7.591120	-1.638040	1.792481	17.964850	-15.858773	82.777157	61.112974	20.636465	2.092154	-0.780856	14.068762	-6.819513	63.008718	53.391781	52.550016	9.795864	5.345363
0.237288	5.536982	-3.363814	96.513208	0.209479	0.927669	0.408142	-4.886335	6.345780	-10.081156	6.434660	0.112306	27.721453	6.724762	0.000000	-6.470451	-4.872706	-3.007806	2.633313	0.045960	24.853696	1.940441	0.000000	0.332703	0.717780	-1.903367	0.617863	0.954647	-2.022328	0.546598	1.745210	-2.022328	0.380246	1.745210	-1.665447	0.308948	1.463697	-1.546486	0.190106	1.111841	-1.427526	2.376464	8.119670	-10.585959	0.000000	0.000000	7.730869	-1.596034	2.141336	18.080947	-15.910937	83.011646	61.168298	20.374702	1.999366	-0.799414	14.247773	-6.754675	63.522481	53.286767	52.106656	9.551746	4.985999
0.254237	5.551666	-3.400726	96.699056	0.208971	0.927655	0.408428	-4.804453	6.355027	-10.320186	6.388132	0.111494	27.797433	6.849883	0.000000	-6.305863	-4.903748	-3.274811	2.727575	0.047605	25.051466	2.629156	0.000000	0.340150	0.717783	-1.900517	0.631693	0.954652	-2.019300	0.558833	1.745218	-2.019300	0.388758	1.745218	-1.662953	0.315864	1.463703	-1.544170	0.194362	1.111846	-1.425388	2.429660	8.119707	-10.570108	0.000000	0.000000	7.856359	-1.544390	2.430441	18.142286	-15.960888	83.079395	61.186769	20.670410	1.924528	-0.756088	14.466745	-6.675105	64.082879	53.157059	51.724747	9.335903	4.663802
